<svg width="23" height="24" viewBox="0 0 23 24" fill="none" xmlns="http://www.w3.org/2000/svg">
<path d="M2 7.2H0V21.9C0 23.055 0.9 24 2 24H16V21.9H2V7.2ZM18 3H6C4.9 3 4 3.945 4 5.1V17.7C4 18.855 4.9 19.8 6 19.8H18C19.1 19.8 20 18.855 20 17.7V5.1C20 3.945 19.1 3 18 3ZM18 17.7H6V5.1H18V17.7ZM10 6.675V16.125L16 11.4L10 6.675Z" fill="#8C8787"/>
<circle cx="18" cy="5" r="5" fill="#E50914"/>
<path d="M18.6486 8H19.5095V6.85889H20.3022V6.10615H19.5095V2.22236H18.2122C16.9109 4.1042 16.2543 5.14121 15.7578 6.07412V6.85889H18.6486V8ZM16.5946 6.09814C17.0551 5.26133 17.6396 4.36045 18.6406 2.91504H18.6566V6.11816H16.5946V6.09814Z" fill="white"/>
<path d="M18.6486 8H19.5095V6.85889H20.3022V6.10615H19.5095V2.22236H18.2122C16.9109 4.1042 16.2543 5.14121 15.7578 6.07412V6.85889H18.6486V8ZM16.5946 6.09814C17.0551 5.26133 17.6396 4.36045 18.6406 2.91504H18.6566V6.11816H16.5946V6.09814Z" fill="white"/>
</svg>
