<svg width="32" height="32" viewBox="0 0 32 32" fill="none" xmlns="http://www.w3.org/2000/svg">
<path d="M12.4167 3.5C12.4167 5.19583 13.8042 6.58333 15.5001 6.58333C17.1959 6.58333 18.5834 5.19583 18.5834 3.5C18.5834 1.80417 17.1959 0.416666 15.5001 0.416666C13.8042 0.416666 12.4167 1.80417 12.4167 3.5ZM3.16675 3.5C3.16675 5.19583 4.55425 6.58333 6.25008 6.58333C7.94592 6.58333 9.33341 5.19583 9.33341 3.5C9.33341 1.80417 7.94591 0.416666 6.25008 0.416666C4.55425 0.416666 3.16675 1.80417 3.16675 3.5ZM21.6667 3.5C21.6667 5.19583 23.0542 6.58333 24.7501 6.58333C26.4459 6.58333 27.8334 5.19583 27.8334 3.5C27.8334 1.80417 26.4459 0.416665 24.7501 0.416666C23.0542 0.416666 21.6667 1.80417 21.6667 3.5Z" fill="white"/>
<path d="M11.4652 31V20.6269H9.59616L6.24628 28.8147H6.18878L2.83171 20.6269H0.969863V31H2.43633V23.3657H2.48665L5.62088 30.9209H6.81418L9.94122 23.3657H9.99154V31H11.4652ZM16.1897 31.1438C18.3535 31.1438 19.7768 29.6557 19.7768 27.2188C19.7768 24.7891 18.3463 23.301 16.1897 23.301C14.0331 23.301 12.6026 24.7891 12.6026 27.2188C12.6026 29.6557 14.0259 31.1438 16.1897 31.1438ZM16.1897 29.8642C14.9748 29.8642 14.1841 28.9009 14.1841 27.2188C14.1841 25.5439 14.9748 24.5806 16.1897 24.5806C17.4046 24.5806 18.1953 25.5439 18.1953 27.2188C18.1953 28.9009 17.4118 29.8642 16.1897 29.8642ZM20.7273 31H22.28V26.4712C22.28 25.4001 22.8982 24.7316 23.8975 24.7316C24.1994 24.7316 24.4725 24.7675 24.5948 24.8178V23.3729C24.4797 23.3513 24.2856 23.3154 24.0628 23.3154C23.1714 23.3154 22.4957 23.8402 22.2441 24.7244H22.2081V23.4376H20.7273V31ZM28.1403 24.5518C29.2258 24.5518 29.959 25.3642 29.995 26.5215H26.2138C26.2929 25.3785 27.0549 24.5518 28.1403 24.5518ZM29.9878 28.7787C29.7793 29.4401 29.1252 29.8858 28.241 29.8858C26.9973 29.8858 26.2066 29.016 26.2066 27.7004V27.607H31.5477V27.075C31.5477 24.7819 30.2394 23.301 28.1403 23.301C26.0053 23.301 24.6395 24.8825 24.6395 27.2547C24.6395 29.6414 25.9838 31.1438 28.205 31.1438C29.9375 31.1438 31.2458 30.1589 31.4615 28.7787H29.9878Z" fill="white"/>
</svg>

