<svg width="10" height="10" viewBox="0 0 10 10" fill="none" xmlns="http://www.w3.org/2000/svg">
<path d="M3.3535 8.8535L8 4.207L5.793 2L1.1465 6.6465C1.08253 6.71055 1.03709 6.79072 1.015 6.8785L0.5 9.5L3.121 8.985C3.209 8.963 3.2895 8.9175 3.3535 8.8535ZM9.5 2.707C9.68747 2.51947 9.79279 2.26517 9.79279 2C9.79279 1.73484 9.68747 1.48053 9.5 1.293L8.707 0.500001C8.51947 0.31253 8.26516 0.207214 8 0.207214C7.73484 0.207214 7.48053 0.31253 7.293 0.500001L6.5 1.293L8.707 3.5L9.5 2.707Z" fill="white" fill-opacity="0.81"/>
</svg>
